<svg width="124" height="50" viewBox="0 0 124 50" fill="none" xmlns="http://www.w3.org/2000/svg">
<path fill-rule="evenodd" clip-rule="evenodd" d="M12.1313 0L9.50413 12.3096H9.59105C10.7404 10.7197 12.9426 9.03466 16.2555 9.03466C21.2394 9.03466 23.4126 12.9475 21.9735 19.6306C20.7565 25.3332 17.347 30.1885 11.5904 30.1885C8.00703 30.1885 6.71277 28.4368 6.1912 26.6851H6.05598C5.75656 28.075 5.41851 29.2841 5.19636 29.8744H0C0.299419 29.1223 0.618154 27.837 0.927231 26.3709L6.56789 0H12.1313ZM10.8563 26.5709C14.092 26.5709 15.4442 24.1813 16.4584 19.4402C17.3373 15.337 16.8254 12.6714 13.7346 12.6714C10.6825 12.6714 8.79904 15.5846 7.94908 19.564C7.12809 23.4197 7.58205 26.5709 10.8563 26.5709ZM27.3727 9.35832H32.9264L28.5414 29.8743H22.978L27.3727 9.35832ZM29.1499 0.628307H34.8968L33.8633 5.49313H28.1164L29.1499 0.628307ZM44.8548 0H39.2817L32.907 29.8744H38.4704L44.8548 0ZM70.7787 5.13138L76.6705 3.62719L75.4438 9.35835H80.0607L79.288 12.976H74.6615L72.3917 23.6101C71.9184 25.7997 72.6814 26.4376 74.3041 26.4376C75.2893 26.4376 76.062 26.1996 76.5063 25.9996L75.7529 29.5126C74.8257 29.8744 73.5411 30.1885 71.8894 30.1885C67.7459 30.1885 65.7755 28.5225 66.7027 24.2194L69.0981 12.9855H65.4181L66.1908 9.36787H69.8708L70.7787 5.13138ZM89.0336 9.35832H83.4702L79.0852 29.8743H84.6486L89.0336 9.35832ZM90.9943 0.628307H85.2474L84.2043 5.49313H89.9512L90.9943 0.628307ZM96.6832 18.8024L92.3271 9.36789H98.6149L100.836 15.9368L106.062 9.36789H111.818L103.377 18.8024L107.965 29.8744H101.812L99.1751 22.2677L93.2833 29.8744H87.3626L96.6832 18.8024ZM55.605 9.05371C60.6565 9.05371 63.9984 11.6051 63.9984 16.7365C63.9984 18.2597 63.7955 19.7544 63.4864 21.23H50.9205C50.9302 20.278 51.0171 19.2118 51.4904 17.6219H58.7923C58.8696 17.1554 58.9179 16.727 58.9179 16.2605C58.9179 14.0994 57.7589 12.8808 55.5277 12.8808C52.379 12.8808 50.9302 14.6611 49.9064 17.2316C49.3751 18.4977 49.0661 19.8591 49.0467 21.2396H49.0371C49.0371 21.2491 49.0395 21.2609 49.0419 21.2728L49.0419 21.2729C49.0443 21.2848 49.0467 21.2967 49.0467 21.3062C49.0467 21.3242 49.0424 21.34 49.0379 21.3568C49.0328 21.3755 49.0274 21.3953 49.0274 21.4204C49.0274 21.546 49.0358 21.6674 49.0443 21.7902L49.0443 21.7906L49.0444 21.791C49.0487 21.8541 49.0531 21.9176 49.0564 21.9821C49.3172 25.1619 51.3069 26.3519 54.7164 26.3519C56.9089 26.3519 59.0241 25.8092 61.0138 24.8953L60.3281 29.0556C58.2708 29.684 56.001 30.1981 53.8085 30.1981C47.9263 30.1981 43.9373 27.3801 43.9373 21.3728C43.9373 15.0895 48.8729 9.05371 55.605 9.05371ZM49.0177 46.468H48.9887C48.3416 47.2677 47.6944 47.7247 46.661 47.7247C45.357 47.7247 44.4298 47.0107 44.4298 45.6874C44.4298 43.3359 47.0956 43.1645 48.8631 43.1645H49.5296C49.5875 42.9646 49.5875 42.7647 49.5875 42.5553C49.5875 41.8317 48.7955 41.6318 48.1484 41.6318C47.3274 41.6318 46.5161 41.8412 45.7724 42.184L46.0428 40.7083C46.8445 40.4227 47.6558 40.2799 48.4961 40.2799C49.9449 40.2799 51.3068 40.8131 51.3068 42.4791C51.3068 43.0249 51.0718 44.178 50.8404 45.3137C50.6682 46.1588 50.4979 46.9942 50.4278 47.5629H48.8342L49.0177 46.468ZM47.1729 46.3633C48.5734 46.3633 49.008 45.4113 49.3074 44.2594H48.641C47.7331 44.2594 46.207 44.4117 46.207 45.6112C46.2167 46.1253 46.6996 46.3633 47.1729 46.3633ZM1.66129 40.4322H0.299419L0 41.7936H1.37153L0.830645 44.1927C0.81683 44.2608 0.802877 44.3284 0.789016 44.3955C0.686592 44.8913 0.589179 45.3629 0.589179 45.8492C0.589179 47.2297 1.48743 47.7152 2.76238 47.7152C3.03435 47.7152 3.33282 47.6499 3.60841 47.5896L3.60898 47.5895C3.66596 47.577 3.72196 47.5648 3.77654 47.5533L4.09527 46.1158C3.85381 46.2205 3.52541 46.2872 3.18736 46.2872C2.77204 46.2872 2.47262 46.0206 2.47262 45.5922C2.47262 45.3161 2.51125 45.0686 2.54989 44.9067L3.23565 41.7936H4.92592L5.22534 40.4322H3.53507L3.99869 38.3188L1.98003 38.9661L1.66129 40.4322ZM5.99801 40.4323H7.88145L6.33606 47.5533H4.45262L5.99801 40.4323ZM6.68377 37.3668H8.56721L8.17121 39.1375H6.28777L6.68377 37.3668ZM12.1796 41.7079C12.6915 41.7079 13.1841 41.8317 13.5511 42.0697L14.0244 40.5465C13.5318 40.3942 12.846 40.2704 12.1506 40.2704C9.56209 40.2704 7.88148 42.1649 7.88148 44.6497C7.88148 46.4871 9.09847 47.7152 10.9626 47.7152C11.5807 47.7152 12.1989 47.6581 12.7688 47.3915L12.9716 45.9159C12.479 46.1539 11.9091 46.2776 11.4455 46.2776C10.1513 46.2776 9.84219 45.3542 9.84219 44.4307C9.84219 43.0884 10.6825 41.7079 12.1796 41.7079ZM15.6083 37.1763H17.4918L16.2361 43.0217H16.2651L18.8923 40.4322H21.3359L17.8588 43.6881L20.0513 47.5533H17.9264L16.0526 43.7738H16.0333L15.222 47.5533H13.3772L15.6083 37.1763ZM29.4687 40.4322H28.1068L27.817 41.7841H29.1693L28.6284 44.1927C28.5028 44.7639 28.3966 45.2971 28.3966 45.8492C28.3966 47.2297 29.2852 47.7152 30.5698 47.7152C30.827 47.7152 31.1157 47.6532 31.3902 47.5942L31.3902 47.5942L31.3903 47.5942L31.391 47.594L31.4693 47.5773C31.508 47.569 31.5462 47.561 31.5839 47.5533L31.9027 46.1158C31.6709 46.2205 31.3328 46.2872 30.9947 46.2872C30.5794 46.2872 30.28 46.0206 30.28 45.5922C30.28 45.3161 30.3186 45.0686 30.3669 44.9067L31.0527 41.7936H32.7333L33.0327 40.4322H31.3425L31.8157 38.3188L29.7874 38.9661L29.4687 40.4322ZM27.4789 42.9741C27.4789 41.1653 26.3005 40.2704 24.5234 40.2704C22.157 40.2704 20.4184 42.3934 20.4184 44.6021C20.4184 46.7156 21.8189 47.7152 23.8955 47.7152C24.6586 47.7152 25.4602 47.5438 26.1943 47.3249L26.4358 45.8587C25.7403 46.1729 24.987 46.3728 24.2239 46.3728C23.0166 46.3728 22.3115 45.9539 22.2246 44.8306C22.2246 44.8031 22.2224 44.7734 22.22 44.7426V44.7426C22.2175 44.7093 22.2149 44.6748 22.2149 44.6402V44.5926V44.5735C22.2246 44.088 22.3308 43.6025 22.5144 43.155C22.8814 42.2506 23.3933 41.6223 24.4944 41.6223C25.2767 41.6223 25.6921 42.0507 25.6921 42.8123C25.6921 42.9836 25.6727 43.1264 25.6438 43.2978H23.0746C22.9104 43.8595 22.8814 44.2213 22.8814 44.5735H27.305C27.4016 44.0404 27.4789 43.5168 27.4789 42.9741ZM33.9889 40.4322C33.9599 40.6512 33.902 40.9463 33.8344 41.2224L32.5111 47.5438H34.3849L35.1383 44.1641L35.1546 44.0992C35.3957 43.1365 35.7558 41.6984 37.0024 41.6984C37.4757 41.6984 37.8814 42.0316 37.8814 42.5552C37.8814 42.9836 37.7365 43.6501 37.6399 44.0785L36.8865 47.5438H38.77L39.5137 44.1641L39.5327 44.0843C39.7635 43.1133 40.0997 41.6984 41.3778 41.6984C41.8511 41.6984 42.2567 42.0316 42.2567 42.5552C42.2567 42.9836 42.1119 43.6501 42.0153 44.0785L41.2619 47.5438H43.1453L43.8987 44.1451C44.0436 43.5549 44.2175 42.8408 44.2175 42.203C44.2175 41.1367 43.2902 40.2609 42.2084 40.2609C41.2039 40.2609 40.1512 40.6893 39.6779 41.6127H39.6489C39.562 40.7559 38.6734 40.2609 37.8138 40.2609C36.9252 40.2609 36.0945 40.6512 35.5923 41.3842H35.5633L35.7371 40.4322H33.9889ZM56.8702 41.8793C56.6674 41.7746 56.1555 41.6128 55.6146 41.6128C55.0544 41.6128 54.359 41.7651 54.359 42.3363C54.359 42.7099 54.7849 42.9856 55.2811 43.3068C55.9734 43.755 56.8026 44.2917 56.8026 45.3066C56.8026 47.163 55.1607 47.7152 53.5477 47.7152C52.7943 47.7152 52.0409 47.6105 51.3551 47.2963L51.7511 45.8207C52.292 46.1063 52.8233 46.3728 53.5477 46.3728C54.1851 46.3728 54.8419 46.1634 54.8419 45.5922C54.8419 45.0787 54.3563 44.7713 53.818 44.4307C53.1488 44.0073 52.3983 43.5324 52.3983 42.5457C52.3983 40.8702 54.0306 40.2799 55.5277 40.2799C56.2134 40.2799 56.9089 40.4037 57.2856 40.4989L56.8702 41.8793ZM59.4298 40.4322H58.068L57.7686 41.7936H59.1304L58.5895 44.1927L58.5684 44.2966L58.5684 44.2967C58.4599 44.8289 58.3577 45.3307 58.3577 45.8492C58.3577 47.2297 59.256 47.7152 60.5309 47.7152C60.7938 47.7152 61.0895 47.6504 61.3639 47.5904L61.3644 47.5903C61.4225 47.5775 61.4797 47.565 61.5354 47.5533L61.8638 46.1158C61.632 46.2205 61.294 46.2872 60.9559 46.2872C60.5406 46.2872 60.2412 46.0206 60.2412 45.5922C60.2412 45.3161 60.2798 45.0686 60.3281 44.9067L61.0139 41.7936H62.6945L62.9939 40.4322H61.3036L61.7672 38.3188L59.7486 38.9661L59.4298 40.4322ZM70.8076 41.3843C70.8656 41.0797 70.9235 40.7561 70.9814 40.4324L70.9815 40.4322H72.778L72.5172 41.7746H72.5462C72.8842 40.9939 73.8018 40.2704 74.6711 40.2704C74.9126 40.2704 75.1637 40.2799 75.3858 40.337L74.9995 42.1554C74.7773 42.0792 74.5166 42.0411 74.2848 42.0411C72.9519 42.0411 72.3047 43.2121 72.0633 44.3641L71.3968 47.5533H69.5134L70.8076 41.3843ZM66.5483 40.2704C68.3351 40.2704 69.5038 41.1653 69.5038 42.9741C69.5038 43.5168 69.4362 44.0404 69.33 44.5735H64.9063C64.9063 44.2213 64.9353 43.8595 65.0995 43.2978H67.6783C67.717 43.1264 67.717 42.9836 67.717 42.8123C67.717 42.0507 67.3113 41.6223 66.5193 41.6223C65.4182 41.6223 64.9063 42.2506 64.5489 43.155C64.3654 43.6025 64.2592 44.088 64.2495 44.5735V44.5926V44.6402V44.8306H64.2592C64.3461 45.9539 65.0415 46.3728 66.2488 46.3728C67.0215 46.3728 67.7653 46.1729 68.4607 45.8587L68.2192 47.3249C67.4852 47.5438 66.6931 47.7152 65.9204 47.7152C63.8438 47.7152 62.4433 46.7156 62.4433 44.6021C62.4433 42.3934 64.1819 40.2704 66.5483 40.2704ZM78.0517 40.0039C78.9403 40.0039 79.6743 40.7274 79.6743 41.6128C79.6743 42.4981 78.9403 43.2122 78.0517 43.2122C77.1631 43.2122 76.429 42.4981 76.429 41.6128C76.4387 40.7274 77.1631 40.0039 78.0517 40.0039ZM78.0613 42.9646C78.8051 42.9646 79.3653 42.3744 79.3653 41.6032C79.3653 40.8416 78.7954 40.2419 78.0613 40.2419C77.308 40.2419 76.7381 40.8416 76.7381 41.6032C76.7381 42.3744 77.308 42.9646 78.0613 42.9646ZM77.4335 40.6703H78.1579C78.6022 40.6703 78.8147 40.8416 78.8147 41.1939C78.8147 41.489 78.6216 41.7175 78.3221 41.7175L78.863 42.5457H78.5346L78.0034 41.7175H77.7426V42.5457H77.4335V40.6703ZM77.7426 41.4795H78.1096C78.3511 41.4795 78.5056 41.4224 78.5056 41.1844C78.5056 40.9654 78.3125 40.9083 78.1096 40.9083H77.7426V41.4795ZM84.2622 47.5152L86.1649 39.0518H88.9949L89.1977 38.1664H82.4753L82.2821 39.0518H85.1121L83.2094 47.5152H84.2622ZM91.9698 47.5153L92.1726 46.6108H92.1436C91.4675 47.2106 90.6659 47.6486 89.8932 47.6486C88.879 47.6486 88.0387 47.1345 88.3671 45.6874L89.4682 40.794H90.4147L89.3233 45.6588C89.1301 46.5537 89.4972 46.8489 90.1829 46.8489C90.8977 46.8489 91.8152 46.2776 92.3561 45.8302L93.4862 40.794H94.4424L92.9357 47.5248H91.9698V47.5153ZM90.5403 39.8896L90.8108 38.671H91.9698L91.6897 39.8896H90.5403ZM92.6073 39.8896L92.8777 38.671H94.0367L93.7566 39.8896H92.6073ZM97.4559 40.7845H96.5093L95.0026 47.5153H95.9491L96.7894 43.7929C97.5428 42.4124 98.3348 41.6508 99.5132 41.6223L99.7257 40.6893C98.5956 40.6893 97.9195 41.1939 97.1758 42.1173H97.1468L97.4559 40.7845ZM101.657 38.1759H102.594L101.242 44.1927H101.271L104.787 40.794H105.936L103.367 43.2788L104.681 47.5248H103.57L102.536 44.0785L100.962 45.5065L100.498 47.5248H99.5518L101.657 38.1759ZM108.824 40.7845H107.868L106.361 47.5152H107.308L108.824 40.7845ZM109.191 39.166L109.442 38.0522H108.496L108.254 39.166H109.191ZM115.798 40.7845L111.751 48.1055C110.92 49.6097 109.916 50 109.027 50C108.776 50 108.621 49.9706 108.482 49.9441L108.482 49.9441C108.444 49.9369 108.407 49.9299 108.37 49.9239L108.544 49.1622C108.589 49.1654 108.636 49.1706 108.686 49.1763L108.686 49.1763C108.787 49.1876 108.901 49.2003 109.037 49.2003C109.616 49.2003 110.524 49.0765 111.191 47.5914L110.341 40.7845H111.335L112.021 45.9254H112.041L114.803 40.7845H115.798ZM117.961 47.639C119.507 47.639 120.328 46.8393 120.936 46.0777L120.289 45.6969C119.748 46.3918 118.995 46.8298 118.154 46.8298C117.024 46.8298 116.348 45.7921 116.696 44.326H121.129L121.255 43.7071C121.747 41.5556 120.753 40.6512 119.333 40.6512C117.652 40.6512 116.261 41.9745 115.778 44.1451C115.228 46.6013 116.435 47.639 117.961 47.639ZM119.198 41.4604C120.212 41.4604 120.637 42.2886 120.347 43.5263H116.879C117.246 42.2886 118.048 41.4604 119.198 41.4604Z" fill="white"/>
</svg>
